<mxfile host="app.diagrams.net" modified="2024-05-17T01:15:57.870Z" agent="Mozilla/5.0 (Windows NT 10.0; Win64; x64) AppleWebKit/537.36 (KHTML, like Gecko) Chrome/124.0.0.0 Safari/537.36" etag="gnnQmN9IG9_6qUo6ArUG" version="24.4.0" type="device">
  <diagram name="페이지-1" id="5E0iv0Qo_bELaoVYkzOG">
    <mxGraphModel dx="701" dy="405" grid="1" gridSize="10" guides="1" tooltips="1" connect="1" arrows="1" fold="1" page="1" pageScale="1" pageWidth="827" pageHeight="1169" math="0" shadow="0">
      <root>
        <mxCell id="0" />
        <mxCell id="1" parent="0" />
        <mxCell id="aRyn0qgB2Iqh5jgsG2TR-7" style="edgeStyle=orthogonalEdgeStyle;rounded=0;orthogonalLoop=1;jettySize=auto;html=1;exitX=0;exitY=0.75;exitDx=0;exitDy=0;entryX=1;entryY=0.75;entryDx=0;entryDy=0;" edge="1" parent="1" source="aRyn0qgB2Iqh5jgsG2TR-1" target="aRyn0qgB2Iqh5jgsG2TR-5">
          <mxGeometry relative="1" as="geometry" />
        </mxCell>
        <mxCell id="aRyn0qgB2Iqh5jgsG2TR-8" style="edgeStyle=orthogonalEdgeStyle;rounded=0;orthogonalLoop=1;jettySize=auto;html=1;exitX=1;exitY=0.5;exitDx=0;exitDy=0;entryX=0;entryY=0.25;entryDx=0;entryDy=0;" edge="1" parent="1" source="aRyn0qgB2Iqh5jgsG2TR-1" target="aRyn0qgB2Iqh5jgsG2TR-2">
          <mxGeometry relative="1" as="geometry" />
        </mxCell>
        <mxCell id="aRyn0qgB2Iqh5jgsG2TR-9" style="edgeStyle=orthogonalEdgeStyle;rounded=0;orthogonalLoop=1;jettySize=auto;html=1;exitX=1;exitY=0.5;exitDx=0;exitDy=0;entryX=0;entryY=0.25;entryDx=0;entryDy=0;" edge="1" parent="1" source="aRyn0qgB2Iqh5jgsG2TR-1" target="aRyn0qgB2Iqh5jgsG2TR-3">
          <mxGeometry relative="1" as="geometry" />
        </mxCell>
        <mxCell id="aRyn0qgB2Iqh5jgsG2TR-1" value="/chat : namespace" style="rounded=0;whiteSpace=wrap;html=1;" vertex="1" parent="1">
          <mxGeometry x="200" y="80" width="120" height="40" as="geometry" />
        </mxCell>
        <mxCell id="aRyn0qgB2Iqh5jgsG2TR-10" style="edgeStyle=orthogonalEdgeStyle;rounded=0;orthogonalLoop=1;jettySize=auto;html=1;exitX=1;exitY=0.5;exitDx=0;exitDy=0;entryX=0.75;entryY=1;entryDx=0;entryDy=0;" edge="1" parent="1" source="aRyn0qgB2Iqh5jgsG2TR-2" target="aRyn0qgB2Iqh5jgsG2TR-5">
          <mxGeometry relative="1" as="geometry">
            <Array as="points">
              <mxPoint x="500" y="160" />
              <mxPoint x="500" y="260" />
              <mxPoint x="130" y="260" />
            </Array>
          </mxGeometry>
        </mxCell>
        <mxCell id="aRyn0qgB2Iqh5jgsG2TR-14" style="edgeStyle=orthogonalEdgeStyle;rounded=0;orthogonalLoop=1;jettySize=auto;html=1;exitX=1;exitY=0.25;exitDx=0;exitDy=0;entryX=1;entryY=0.25;entryDx=0;entryDy=0;" edge="1" parent="1" source="aRyn0qgB2Iqh5jgsG2TR-2" target="aRyn0qgB2Iqh5jgsG2TR-12">
          <mxGeometry relative="1" as="geometry">
            <Array as="points">
              <mxPoint x="530" y="150" />
              <mxPoint x="530" y="30" />
            </Array>
          </mxGeometry>
        </mxCell>
        <mxCell id="aRyn0qgB2Iqh5jgsG2TR-2" value="1 : room" style="rounded=0;whiteSpace=wrap;html=1;" vertex="1" parent="1">
          <mxGeometry x="360" y="140" width="120" height="40" as="geometry" />
        </mxCell>
        <mxCell id="aRyn0qgB2Iqh5jgsG2TR-11" style="edgeStyle=orthogonalEdgeStyle;rounded=0;orthogonalLoop=1;jettySize=auto;html=1;entryX=0.75;entryY=1;entryDx=0;entryDy=0;exitX=1;exitY=0.5;exitDx=0;exitDy=0;" edge="1" parent="1" source="aRyn0qgB2Iqh5jgsG2TR-3" target="aRyn0qgB2Iqh5jgsG2TR-5">
          <mxGeometry relative="1" as="geometry">
            <Array as="points">
              <mxPoint x="500" y="220" />
              <mxPoint x="500" y="260" />
              <mxPoint x="130" y="260" />
            </Array>
          </mxGeometry>
        </mxCell>
        <mxCell id="aRyn0qgB2Iqh5jgsG2TR-15" style="edgeStyle=orthogonalEdgeStyle;rounded=0;orthogonalLoop=1;jettySize=auto;html=1;exitX=1;exitY=0.25;exitDx=0;exitDy=0;entryX=1;entryY=0.25;entryDx=0;entryDy=0;" edge="1" parent="1" source="aRyn0qgB2Iqh5jgsG2TR-3" target="aRyn0qgB2Iqh5jgsG2TR-12">
          <mxGeometry relative="1" as="geometry">
            <mxPoint x="260" y="50" as="targetPoint" />
            <Array as="points">
              <mxPoint x="530" y="210" />
              <mxPoint x="530" y="30" />
            </Array>
          </mxGeometry>
        </mxCell>
        <mxCell id="aRyn0qgB2Iqh5jgsG2TR-3" value="2 : room" style="rounded=0;whiteSpace=wrap;html=1;" vertex="1" parent="1">
          <mxGeometry x="360" y="200" width="120" height="40" as="geometry" />
        </mxCell>
        <mxCell id="aRyn0qgB2Iqh5jgsG2TR-4" value="random : room" style="rounded=0;whiteSpace=wrap;html=1;" vertex="1" parent="1">
          <mxGeometry x="360" y="80" width="120" height="40" as="geometry" />
        </mxCell>
        <mxCell id="aRyn0qgB2Iqh5jgsG2TR-6" style="edgeStyle=orthogonalEdgeStyle;rounded=0;orthogonalLoop=1;jettySize=auto;html=1;exitX=1;exitY=0.5;exitDx=0;exitDy=0;entryX=0;entryY=0.5;entryDx=0;entryDy=0;" edge="1" parent="1" source="aRyn0qgB2Iqh5jgsG2TR-5" target="aRyn0qgB2Iqh5jgsG2TR-1">
          <mxGeometry relative="1" as="geometry" />
        </mxCell>
        <mxCell id="aRyn0qgB2Iqh5jgsG2TR-5" value="client : random, 2" style="rounded=0;whiteSpace=wrap;html=1;" vertex="1" parent="1">
          <mxGeometry x="40" y="80" width="120" height="40" as="geometry" />
        </mxCell>
        <mxCell id="aRyn0qgB2Iqh5jgsG2TR-13" style="edgeStyle=orthogonalEdgeStyle;rounded=0;orthogonalLoop=1;jettySize=auto;html=1;exitX=1;exitY=0.5;exitDx=0;exitDy=0;entryX=0;entryY=0.5;entryDx=0;entryDy=0;" edge="1" parent="1" source="aRyn0qgB2Iqh5jgsG2TR-12" target="aRyn0qgB2Iqh5jgsG2TR-1">
          <mxGeometry relative="1" as="geometry" />
        </mxCell>
        <mxCell id="aRyn0qgB2Iqh5jgsG2TR-12" value="client : random, 1, 2" style="rounded=0;whiteSpace=wrap;html=1;" vertex="1" parent="1">
          <mxGeometry x="40" y="20" width="120" height="40" as="geometry" />
        </mxCell>
      </root>
    </mxGraphModel>
  </diagram>
</mxfile>
